<svg xmlns="http://www.w3.org/2000/svg" xmlns:xlink="http://www.w3.org/1999/xlink" width="70" zoomAndPan="magnify" viewBox="0 0 52.5 52.499999" height="70" preserveAspectRatio="xMidYMid meet" version="1.0"><defs><g/></defs><g fill="#ffffff" fill-opacity="1"><g transform="translate(14.294601, 28.719017)"><g><path d="M 3.8125 0 L 0.59375 -0.125 L 1 -13.046875 L 3.703125 -13.046875 L 7.875 -3.5625 L 11.640625 -13.765625 L 14.796875 -13.109375 L 14.796875 -0.171875 L 11.96875 -0.0625 L 11.703125 -6.40625 L 9.359375 -0.0625 L 8.53125 -0.09375 L 6.625 0 L 3.421875 -6.984375 Z M 3.8125 0 "/></g></g></g><path stroke-linecap="butt" transform="matrix(0.104009, 0, 0, 0.104009, 24.365399, 13.057815)" fill="none" stroke-linejoin="miter" d="M 38.325023 188.016288 L 36.785199 163.228871 L 89.702577 87.852591 L 36.221848 87.514581 L 36.221848 61.450237 L 115.579138 58.595928 L 121.775992 88.228158 L 78.172673 157.182244 L 116.893622 158.346501 L 116.893622 184.410845 Z M 38.325023 188.016288 " stroke="#16a1c5" stroke-width="14.169225" stroke-opacity="1" stroke-miterlimit="4"/><g fill="#ffffff" fill-opacity="1"><g transform="translate(27.544187, 32.611587)"><g><path d="M 0.8125 0 L 0.65625 -2.578125 L 6.15625 -10.421875 L 0.59375 -10.453125 L 0.59375 -13.171875 L 8.84375 -13.46875 L 9.5 -10.375 L 4.953125 -3.203125 L 8.984375 -3.09375 L 8.984375 -0.375 Z M 0.8125 0 "/></g></g></g><g fill="#ffffff" fill-opacity="1"><g transform="translate(24.217884, 35.489206)"><g/></g></g><g fill="#ffffff" fill-opacity="1"><g transform="translate(25.480623, 35.489206)"><g><path d="M 1.5625 -2.046875 L 2.015625 -2.046875 L 2.015625 0.15625 L 1.5625 0.15625 L 1.5625 -1.46875 L 1.078125 -1.046875 L 0.609375 -1.46875 L 0.609375 0.15625 L 0.109375 0.15625 L 0.109375 -2.046875 L 0.609375 -2.046875 L 1.09375 -1.515625 Z M 1.5625 -2.046875 "/></g></g></g><g fill="#ffffff" fill-opacity="1"><g transform="translate(28.109688, 35.489206)"><g/></g></g><g fill="#ffffff" fill-opacity="1"><g transform="translate(29.371581, 35.489206)"><g><path d="M 1.65625 0.15625 L 0.078125 0.15625 L 0.078125 -0.296875 L 1.078125 -1.734375 L 0.078125 -1.734375 L 0.078125 -2.046875 L 1.65625 -2.046875 L 1.65625 -1.765625 L 0.578125 -0.3125 L 1.65625 -0.3125 Z M 1.65625 0.15625 "/></g></g></g><g fill="#ffffff" fill-opacity="1"><g transform="translate(31.603142, 35.489206)"><g><path d="M 0.53125 0.15625 L 0.046875 0.15625 L 0.828125 -2.046875 L 1.25 -2.046875 L 2.03125 0.15625 L 1.640625 0.15625 L 1.5 -0.296875 L 0.6875 -0.296875 Z M 0.8125 -0.5625 L 1.375 -0.5625 L 1.09375 -1.5 Z M 0.8125 -0.5625 "/></g></g></g><g fill="#ffffff" fill-opacity="1"><g transform="translate(34.208115, 35.489206)"><g><path d="M 0.59375 0.15625 L 0.15625 0.15625 L 0.15625 -2.046875 L 0.59375 -2.046875 Z M 0.59375 0.15625 "/></g></g></g><g fill="#ffffff" fill-opacity="1"><g transform="translate(35.442905, 35.489206)"><g><path d="M 0.125 -2.046875 L 1.03125 -2.046875 C 1.113281 -2.046875 1.203125 -2.035156 1.296875 -2.015625 C 1.390625 -1.992188 1.472656 -1.957031 1.546875 -1.90625 C 1.617188 -1.851562 1.675781 -1.78125 1.71875 -1.6875 C 1.769531 -1.59375 1.796875 -1.472656 1.796875 -1.328125 L 1.796875 -0.609375 C 1.796875 -0.472656 1.769531 -0.359375 1.71875 -0.265625 C 1.664062 -0.171875 1.597656 -0.09375 1.515625 -0.03125 C 1.441406 0.03125 1.359375 0.078125 1.265625 0.109375 C 1.171875 0.140625 1.078125 0.15625 0.984375 0.15625 L 0.125 0.15625 Z M 1.421875 -1.21875 C 1.421875 -1.351562 1.382812 -1.453125 1.3125 -1.515625 C 1.25 -1.578125 1.132812 -1.609375 0.96875 -1.609375 L 0.609375 -1.609375 L 0.609375 -0.328125 L 0.984375 -0.328125 C 1.046875 -0.328125 1.101562 -0.332031 1.15625 -0.34375 C 1.207031 -0.351562 1.25 -0.367188 1.28125 -0.390625 C 1.320312 -0.421875 1.351562 -0.457031 1.375 -0.5 C 1.40625 -0.539062 1.421875 -0.597656 1.421875 -0.671875 Z M 1.421875 -1.21875 "/></g></g></g><path stroke-linecap="butt" transform="matrix(0.742924, 0, 0, 0.742924, 14.480029, 30.834298)" fill="none" stroke-linejoin="miter" d="M 0.000591305 1.001215 L 17.125692 1.001215 " stroke="#ffffff" stroke-width="2" stroke-opacity="1" stroke-miterlimit="4"/></svg>