<svg xmlns="http://www.w3.org/2000/svg" width="70" viewBox="0 0 52.5 52.5" height="70" version="1.0"><path d="M18.107 28.719l-3.219-.125.407-12.922h2.703l4.172 9.485 3.765-10.204 3.156.657v12.937l-2.828.11-.265-6.344-2.344 6.344-.828-.032-1.906.094-3.204-6.984zm0 0" fill="#fff"/><path fill="none" d="M28.352 32.613l-.16-2.578 5.503-7.84-5.562-.035v-2.71l8.254-.298.644 3.082-4.535 7.172 4.027.121v2.711zm0 0" stroke="#16a1c5" stroke-width="1.4737176900000002"/><path d="M28.357 32.612l-.157-2.579 5.5-7.843-5.562-.032V19.44l8.25-.297.656 3.094-4.547 7.171 4.032.11v2.719zm0 0M27.043 33.442h.453v2.203h-.453V34.02l-.484.422-.469-.422v1.625h-.5v-2.203h.5l.484.532zm0 0M31.028 35.645H29.45v-.453l1-1.437h-1v-.313h1.578v.282l-1.078 1.453h1.078zm0 0M32.134 35.645h-.484l.781-2.203h.422l.781 2.203h-.39l-.14-.453h-.813zm.282-.718h.562l-.281-.938zm0 0M34.802 35.645h-.438v-2.203h.438zm0 0M35.568 33.442h.906c.082 0 .172.012.266.032a.76.76 0 01.25.109c.07.055.129.125.172.219.05.093.078.215.078.36v.718a.71.71 0 01-.078.344.787.787 0 01-.203.234.752.752 0 01-.25.14.885.885 0 01-.282.047h-.86zm1.297.828c0-.132-.04-.234-.11-.296-.062-.063-.18-.094-.343-.094h-.36v1.281h.375a.804.804 0 00.172-.016.28.28 0 00.125-.046.359.359 0 00.094-.11.273.273 0 00.047-.172zm0 0" fill="#fff"/><path fill="none" d="M14.48 31.578h12.723" stroke="#fff" stroke-width="1.48584"/></svg>