<svg xmlns="http://www.w3.org/2000/svg" xmlns:xlink="http://www.w3.org/1999/xlink" width="70" zoomAndPan="magnify" viewBox="0 0 52.5 52.499999" height="70" preserveAspectRatio="xMidYMid meet" version="1.0"><defs><clipPath id="e314bde6e7"><path d="M 2.992188 24.796875 L 49.011719 24.796875 L 49.011719 38.632812 L 2.992188 38.632812 Z M 2.992188 24.796875 " clip-rule="nonzero"/></clipPath><clipPath id="c14b6b85fb"><path d="M 10 8.914062 L 35 8.914062 L 35 31 L 10 31 Z M 10 8.914062 " clip-rule="nonzero"/></clipPath><clipPath id="c1c2742884"><path d="M 10 8.921875 L 49.011719 8.921875 L 49.011719 30.460938 L 10 30.460938 Z M 10 8.921875 " clip-rule="nonzero"/></clipPath></defs><path stroke-linecap="butt" transform="matrix(0.742924, 0, 0, 0.742924, 14.480029, 30.834298)" fill="none" stroke-linejoin="miter" d="M 0.000591305 1.001215 L 17.125692 1.001215 " stroke="#ffffff" stroke-width="2" stroke-opacity="1" stroke-miterlimit="4"/><g clip-path="url(#e314bde6e7)"><path fill="#d9d9d9" d="M 8.539062 32.414062 C 8.539062 32.414062 25.140625 20.632812 49.011719 26.457031 C 49.011719 26.457031 28.128906 24.253906 2.992188 38.925781 L 8.539062 32.414062 " fill-opacity="1" fill-rule="nonzero"/></g><g clip-path="url(#c14b6b85fb)"><path fill="#ffffff" d="M 27.945312 8.921875 L 14.9375 8.921875 L 14.9375 11.796875 L 25.554688 11.796875 L 10.035156 30.460938 L 34.746094 8.921875 L 27.945312 8.921875 " fill-opacity="1" fill-rule="nonzero"/></g><g clip-path="url(#c1c2742884)"><path fill="#d9d9d9" d="M 21.195312 25.214844 L 34.746094 8.921875 L 10.035156 30.460938 C 12.246094 29.171875 16.832031 26.832031 23.203125 25.304688 C 29.945312 23.25 38.742188 21.878906 49.011719 23.292969 C 37.480469 21.097656 27.828125 22.929688 21.195312 25.214844 " fill-opacity="1" fill-rule="nonzero"/></g></svg>