<svg xmlns="http://www.w3.org/2000/svg" width="650" viewBox="0 0 487.5 487.5" height="650" version="1.0"><defs><clipPath id="prefix__a"><path d="M28.031 252H458.84v131.867H28.03zm0 0"/></clipPath><clipPath id="prefix__b"><path d="M93.418 103.008H458.84v201.715H93.418zm0 0"/></clipPath></defs><g clip-path="url(#prefix__a)"><path fill="#3979a8" d="M79.98 323.016s155.461-110.332 379.016-55.786c0 0-195.555-20.648-430.965 116.766l51.95-60.98"/></g><path fill="#01377f" d="M261.723 103.008H139.879v26.922h99.45L93.96 304.7l231.453-201.692h-63.691"/><g clip-path="url(#prefix__b)"><path fill="#3979a8" d="M198.504 255.59l126.91-152.582L93.961 304.699c20.727-12.078 63.676-33.969 123.332-48.285 63.133-19.25 145.516-32.059 241.703-18.82C351 217.016 260.617 234.19 198.504 255.59"/></g></svg>