<svg xmlns="http://www.w3.org/2000/svg" xmlns:xlink="http://www.w3.org/1999/xlink" width="650" zoomAndPan="magnify" viewBox="0 0 487.5 487.499999" height="650" preserveAspectRatio="xMidYMid meet" version="1.0"><defs><g/><clipPath id="97575fd158"><path d="M 28.03125 252 L 458.839844 252 L 458.839844 383.867188 L 28.03125 383.867188 Z M 28.03125 252 " clip-rule="nonzero"/></clipPath><clipPath id="fe4c249c21"><path d="M 93.417969 103.007812 L 458.839844 103.007812 L 458.839844 304.722656 L 93.417969 304.722656 Z M 93.417969 103.007812 " clip-rule="nonzero"/></clipPath></defs><g clip-path="url(#97575fd158)"><path fill="#3979a8" d="M 79.980469 323.015625 C 79.980469 323.015625 235.441406 212.683594 458.996094 267.230469 C 458.996094 267.230469 263.441406 246.582031 28.03125 383.996094 L 79.980469 323.015625 " fill-opacity="1" fill-rule="nonzero"/></g><path fill="#01377f" d="M 261.722656 103.007812 L 139.878906 103.007812 L 139.878906 129.929688 L 239.328125 129.929688 L 93.960938 304.699219 L 325.414062 103.007812 L 261.722656 103.007812 " fill-opacity="1" fill-rule="nonzero"/><g clip-path="url(#fe4c249c21)"><path fill="#3979a8" d="M 198.503906 255.589844 L 325.414062 103.007812 L 93.960938 304.699219 C 114.6875 292.621094 157.636719 270.730469 217.292969 256.414062 C 280.425781 237.164062 362.808594 224.355469 458.996094 237.59375 C 351 217.015625 260.617188 234.191406 198.503906 255.589844 " fill-opacity="1" fill-rule="nonzero"/></g><g fill="#000000" fill-opacity="1"><g transform="translate(247.949804, 406.59909)"><g/></g><g transform="translate(255.017749, 406.59909)"><g/></g></g></svg>