<svg xmlns="http://www.w3.org/2000/svg" width="70" viewBox="0 0 52.5 52.5" height="70" version="1.0"><defs><clipPath id="prefix__a"><path d="M2.992 24.797h46.02v13.836H2.992zm0 0"/></clipPath><clipPath id="prefix__b"><path d="M10 8.914h25V31H10zm0 0"/></clipPath><clipPath id="prefix__c"><path d="M10 8.922h39.012V30.46H10zm0 0"/></clipPath></defs><path fill="none" d="M14.48 31.578h12.723" stroke="#fff" stroke-width="1.48584"/><g clip-path="url(#prefix__a)"><path fill="#d9d9d9" d="M8.54 32.414s16.6-11.781 40.472-5.957c0 0-20.883-2.203-46.02 12.469l5.547-6.512"/></g><g clip-path="url(#prefix__b)"><path fill="#fff" d="M27.945 8.922H14.937v2.875h10.618L10.035 30.46 34.746 8.92h-6.8"/></g><g clip-path="url(#prefix__c)"><path fill="#d9d9d9" d="M21.195 25.215L34.746 8.922 10.036 30.46c2.21-1.29 6.796-3.629 13.167-5.156 6.742-2.055 15.54-3.426 25.809-2.012-11.532-2.195-21.184-.363-27.817 1.922"/></g></svg>